<svg version="1.1" id="Layer_1" xmlns="http://www.w3.org/2000/svg" xmlns:xlink="http://www.w3.org/1999/xlink" x="0px" y="0px"
	 width="100%" viewBox="0 0 252 275" enable-background="new 0 0 252 275" xml:space="preserve">
<path fill="#000101" opacity="1.000000" stroke="none" 
	d="
M144.000000,276.000000 
	C96.000000,276.000000 48.500000,276.000000 1.000000,276.000000 
	C1.000000,184.333328 1.000000,92.666664 1.000000,1.000000 
	C85.000000,1.000000 169.000000,1.000000 253.000000,1.000000 
	C253.000000,92.666664 253.000000,184.333328 253.000000,276.000000 
	C216.833328,276.000000 180.666672,276.000000 144.000000,276.000000 
M7.399413,170.487076 
	C7.399444,171.486633 7.432885,172.487457 7.394585,173.485550 
	C6.579772,194.718933 13.867680,211.546036 33.353943,221.987442 
	C34.955666,222.845688 36.187511,225.208313 36.718166,227.114914 
	C39.484081,237.052673 41.942474,247.075607 44.556526,257.056152 
	C46.815552,265.681213 51.993393,268.765045 60.613819,266.471954 
	C67.364014,264.676392 74.298515,263.243713 80.710823,260.587067 
	C89.788315,256.826172 97.203392,258.070404 105.777084,263.139496 
	C121.337952,272.339630 137.525269,271.579620 152.900665,261.429565 
	C155.260437,259.871765 157.732788,258.480865 160.181824,257.062439 
	C181.653473,244.626358 203.155457,232.242508 224.599274,219.758667 
	C238.261856,211.804794 246.525925,199.923019 246.782227,184.084534 
	C247.261810,154.448227 247.065033,124.791611 246.582504,95.152664 
	C246.302017,77.924713 239.555710,64.258171 223.515045,55.467495 
	C200.594070,42.906231 178.094162,29.563736 155.594376,16.250767 
	C137.125549,5.322892 119.129395,4.124459 100.207169,15.651744 
	C76.746758,29.943653 52.700272,43.271774 28.950180,57.090519 
	C14.240927,65.648941 7.335567,79.036774 7.114520,95.556908 
	C6.784848,120.195213 7.264060,144.844345 7.399413,170.487076 
z"/>
<path fill="#45A568" opacity="1.000000" stroke="none" 
	d="
M7.399265,169.987976 
	C7.264060,144.844345 6.784848,120.195213 7.114520,95.556908 
	C7.335567,79.036774 14.240927,65.648941 28.950180,57.090519 
	C52.700272,43.271774 76.746758,29.943653 100.207169,15.651744 
	C119.129395,4.124459 137.125549,5.322892 155.594376,16.250767 
	C178.094162,29.563736 200.594070,42.906231 223.515045,55.467495 
	C239.555710,64.258171 246.302017,77.924713 246.582504,95.152664 
	C247.065033,124.791611 247.261810,154.448227 246.782227,184.084534 
	C246.525925,199.923019 238.261856,211.804794 224.599274,219.758667 
	C203.155457,232.242508 181.653473,244.626358 160.181824,257.062439 
	C157.732788,258.480865 155.260437,259.871765 152.900665,261.429565 
	C137.525269,271.579620 121.337952,272.339630 105.777084,263.139496 
	C97.203392,258.070404 89.788315,256.826172 80.710823,260.587067 
	C74.298515,263.243713 67.364014,264.676392 60.613819,266.471954 
	C51.993393,268.765045 46.815552,265.681213 44.556526,257.056152 
	C41.942474,247.075607 39.484081,237.052673 36.718166,227.114914 
	C36.187511,225.208313 34.955666,222.845688 33.353943,221.987442 
	C13.867680,211.546036 6.579772,194.718933 7.394585,173.485550 
	C7.432885,172.487457 7.399444,171.486633 7.399265,169.987976 
M81.101898,90.275826 
	C63.562504,87.566818 45.975914,87.164185 28.330599,89.116142 
	C21.195415,89.905449 21.238466,89.847626 21.475592,96.846642 
	C21.729271,104.334267 21.853783,111.826202 22.087044,119.314621 
	C22.151617,121.387604 22.402584,123.454788 22.605799,125.997093 
	C58.905323,119.877487 93.341019,122.649727 124.979721,141.854187 
	C156.282288,160.854599 175.971481,189.328506 189.159912,223.258835 
	C196.932907,218.649857 204.089294,214.424057 211.228271,210.169067 
	C220.350952,204.731781 220.459229,204.665344 215.716934,195.031448 
	C187.966782,138.657379 145.140945,101.522545 81.101898,90.275826 
M47.849438,61.900719 
	C46.178425,64.973648 49.095814,63.693348 49.857327,63.756676 
	C58.484009,64.474098 67.175560,64.627701 75.750748,65.713844 
	C143.731735,74.324394 194.976135,107.961540 228.306061,168.210800 
	C228.824829,169.148529 229.511642,169.993301 230.674316,171.690613 
	C230.920547,169.660034 231.167252,168.578751 231.165421,167.497894 
	C231.136841,150.667633 230.969437,133.836578 231.101425,117.007812 
	C231.132553,113.038567 229.870499,110.062202 227.302521,107.163162 
	C193.386963,68.875381 151.007095,45.378452 101.156868,35.052505 
	C98.380241,34.477356 94.768044,35.140518 92.260063,36.523998 
	C77.527199,44.651115 63.006943,53.163631 47.849438,61.900719 
M138.032822,185.476181 
	C135.104355,182.517700 132.333801,179.380722 129.222763,176.628632 
	C101.301247,151.928711 68.236816,145.199448 32.273304,149.590256 
	C19.289812,151.175430 21.770599,150.017822 21.549555,161.873825 
	C21.434652,168.036804 21.499588,174.203903 21.544258,180.368713 
	C21.562023,182.820465 21.744663,185.271027 21.884329,188.453156 
	C82.774940,170.537048 117.677528,197.461502 135.708878,254.136093 
	C144.701675,248.738724 153.320663,243.415802 162.103455,238.378510 
	C165.042328,236.692917 165.422379,234.991516 164.321518,231.915100 
	C158.315628,215.131454 150.228195,199.557648 138.032822,185.476181 
M69.432930,227.053482 
	C77.380577,231.588181 85.328224,236.122864 94.156906,241.160248 
	C89.008057,224.558548 68.286041,212.726471 51.975243,216.932434 
	C58.068100,220.462845 63.434994,223.572601 69.432930,227.053482 
z"/>
<path fill="#060D08" opacity="1.000000" stroke="none" 
	d="
M81.530182,90.359573 
	C145.140945,101.522545 187.966782,138.657379 215.716934,195.031448 
	C220.459229,204.665344 220.350952,204.731781 211.228271,210.169067 
	C204.089294,214.424057 196.932907,218.649857 189.159912,223.258835 
	C175.971481,189.328506 156.282288,160.854599 124.979721,141.854187 
	C93.341019,122.649727 58.905323,119.877487 22.605799,125.997093 
	C22.402584,123.454788 22.151617,121.387604 22.087044,119.314621 
	C21.853783,111.826202 21.729271,104.334267 21.475592,96.846642 
	C21.238466,89.847626 21.195415,89.905449 28.330599,89.116142 
	C45.975914,87.164185 63.562504,87.566818 81.530182,90.359573 
z"/>
<path fill="#060E09" opacity="1.000000" stroke="none" 
	d="
M48.132229,61.723480 
	C63.006943,53.163631 77.527199,44.651115 92.260063,36.523998 
	C94.768044,35.140518 98.380241,34.477356 101.156868,35.052505 
	C151.007095,45.378452 193.386963,68.875381 227.302521,107.163162 
	C229.870499,110.062202 231.132553,113.038567 231.101425,117.007812 
	C230.969437,133.836578 231.136841,150.667633 231.165421,167.497894 
	C231.167252,168.578751 230.920547,169.660034 230.674316,171.690613 
	C229.511642,169.993301 228.824829,169.148529 228.306061,168.210800 
	C194.976135,107.961540 143.731735,74.324394 75.750748,65.713844 
	C67.175560,64.627701 58.484009,64.474098 49.857327,63.756676 
	C49.095814,63.693348 46.178425,64.973648 48.132229,61.723480 
z"/>
<path fill="#060D08" opacity="1.000000" stroke="none" 
	d="
M138.267639,185.742706 
	C150.228195,199.557648 158.315628,215.131454 164.321518,231.915100 
	C165.422379,234.991516 165.042328,236.692917 162.103455,238.378510 
	C153.320663,243.415802 144.701675,248.738724 135.708878,254.136093 
	C117.677528,197.461502 82.774940,170.537048 21.884329,188.453156 
	C21.744663,185.271027 21.562023,182.820465 21.544258,180.368713 
	C21.499588,174.203903 21.434652,168.036804 21.549555,161.873825 
	C21.770599,150.017822 19.289812,151.175430 32.273304,149.590256 
	C68.236816,145.199448 101.301247,151.928711 129.222763,176.628632 
	C132.333801,179.380722 135.104355,182.517700 138.267639,185.742706 
z"/>
<path fill="#09160E" opacity="1.000000" stroke="none" 
	d="
M69.117401,226.867920 
	C63.434994,223.572601 58.068100,220.462845 51.975243,216.932434 
	C68.286041,212.726471 89.008057,224.558548 94.156906,241.160248 
	C85.328224,236.122864 77.380577,231.588181 69.117401,226.867920 
z"/>
</svg>